<?xml version="1.0" standalone="no"?>
<!DOCTYPE svg PUBLIC "-//W3C//DTD SVG 20010904//EN" "http://www.w3.org/TR/2001/REC-SVG-20010904/DTD/svg10.dtd">
<svg version="1.0" xmlns="http://www.w3.org/2000/svg" width="50.000000pt" height="50.000000pt" viewBox="0 0 50.000000 50.000000" preserveAspectRatio="xMidYMid meet">

  <g transform="translate(0.000000,50.000000) scale(0.100000,-0.100000)" fill="#485fa0" stroke="none">
    <path d="M56 444 c-24 -23 -24 -365 0 -388 23 -24 365 -24 388 0 24 23 24 365
0 388 -23 24 -365 24 -388 0z m379 -194 l0 -185 -185 0 -185 0 -3 175 c-1 96
0 180 3 187 3 11 44 13 187 11 l183 -3 0 -185z" />
    <path d="M100 381 c0 -6 16 -11 38 -11 67 0 115 -20 163 -69 49 -48 69 -96 69
-163 0 -22 5 -38 11 -38 17 0 5 109 -16 151 -24 48 -63 87 -109 111 -46 24
-156 37 -156 19z" />
    <path d="M105 280 c-4 -6 8 -10 30 -10 75 0 135 -59 135 -133 0 -26 4 -36 11
-31 17 10 5 92 -18 123 -35 48 -139 81 -158 51z" />
    <path d="M112 178 c-19 -19 -14 -56 8 -68 43 -23 83 17 60 60 -12 22 -49 27
-68 8z m56 -31 c4 -20 -25 -34 -40 -19 -15 15 -1 44 19 40 10 -2 19 -11 21
-21z" />
  </g>
</svg>
