<?xml version="1.0" encoding="UTF-8" standalone="no"?>
<!-- Created with Inkscape (http://www.inkscape.org/) -->

<svg
   width="24"
   height="24"
   viewBox="0 0 6.3499999 6.3499999"
   version="1.1"
   id="svg5"
   xml:space="preserve"
   xmlns="http://www.w3.org/2000/svg"
   xmlns:svg="http://www.w3.org/2000/svg"><defs
     id="defs2" /><g
     id="layer1"><path
       style="fill:#05345f;fill-opacity:1;stroke:#ffffff;stroke-width:0.0365125;stroke-dasharray:none;stroke-opacity:1"
       d="m 5.4925455,5.9332371 c 0.082049,-0.00161 0.2133973,-0.00161 0.2918852,8e-6 0.07849,0.00161 0.011359,0.00322 -0.149179,0.00322 -0.1605369,-8e-6 -0.2247544,-0.00161 -0.1427062,-0.00322 z m -1.9864866,-0.01045 c 0.2680382,-0.00161 0.7066473,-0.00161 0.9746855,0 0.268039,0.00161 0.048731,0.00322 -0.4873432,0.00322 -0.5360764,0 -0.7553813,-0.00161 -0.4873423,-0.00322 z m 1.8529454,-0.00322 C 5.0407979,5.9155518 3.8305194,5.9088797 2.6694975,5.9046995 1.374407,5.8998763 0.55138372,5.8932041 0.54001212,5.8871751 c -0.010193,-0.00563 -0.016037,-0.013907 -0.012991,-0.018811 0.00305,-0.00482 -0.033176,-0.03111 -0.080497,-0.0582 -0.047324,-0.02709 -0.1159107,-0.069937 -0.1524202,-0.095267 -0.036512,-0.025322 -0.068353,-0.044052 -0.070773,-0.041641 -0.00442,0.00482 0.1485736,0.1054763 0.2387876,0.1576237 0.027235,0.015756 0.049519,0.030949 0.049519,0.033843 0,0.00828 -0.089228,-0.045017 -0.2137012,-0.1275106 C 0.19269828,5.6674362 0.08423474,5.5745001 0.08423474,5.5540978 c 0,-0.00482 0.0220824,0.015193 0.0490765,0.044052 0.0269941,0.028859 0.0584175,0.057477 0.0698326,0.063587 0.011415,0.00643 -0.006913,-0.01463 -0.0407082,-0.046062 l -0.0614642,-0.057236 -0.007717,-0.077172 c -0.004261,-0.042445 -0.007074,-0.1170521 -0.006351,-0.165791 l 0.001367,-0.088603 0.006994,0.099029 c 0.004823,0.067927 0.006351,0.031833 0.004823,-0.1146646 -0.001527,-0.1498663 6.19e-5,-0.1856789 0.005225,-0.1198818 0.005386,0.06849 0.006833,0.040274 0.005225,-0.1042464 -0.001447,-0.1352277 2.0017e-4,-0.1716111 0.005225,-0.1146726 0.005225,0.059165 0.006753,0.030386 0.005145,-0.099029 -0.001286,-0.1048735 4.3329e-4,-0.1469724 0.004019,-0.099029 l 0.00619,0.083394 0.00627,-0.1198817 c 0.006672,-0.1275508 0.0234329,-0.1811611 0.12820828,-0.4104582 0.045009,-0.098499 0.048048,-0.1169396 0.00627,-0.037782 -0.016656,0.031512 -0.030515,0.053618 -0.03078,0.049197 -0.00113,-0.01873 0.052863,-0.111409 0.063506,-0.1090617 0.00635,0.00161 0.013947,-0.00402 0.016841,-0.011897 0.00346,-0.00941 7.998e-4,-0.011737 -0.00756,-0.00643 -0.020547,0.012701 0.00386,-0.027171 0.036745,-0.060049 l 0.028328,-0.028377 0.167976,0.00241 0.167975,0.00241 -0.1680088,0.00322 c -0.1588962,0.00322 -0.1690741,0.00402 -0.1876395,0.026367 l -0.019631,0.023232 0.022959,-0.019373 c 0.021914,-0.018489 0.042589,-0.019052 0.4546382,-0.011737 0.30700758,0.00563 0.43369978,0.00482 0.43867578,-0.00402 0.00386,-0.00643 0.00105,-0.020901 -0.00627,-0.032557 -0.010828,-0.017364 -0.0107,-0.025402 6.785e-4,-0.04365 0.012227,-0.019614 0.011889,-0.021544 -0.00273,-0.015997 -0.024164,0.00924 -0.020451,-6.672e-4 0.00547,-0.01447 0.017444,-0.00932 0.020386,-0.00908 0.013923,0.00161 -0.00603,0.00981 -0.00297,0.011093 0.011777,0.00482 0.010973,-0.00482 0.032702,-0.011897 0.048281,-0.01656 0.015579,-0.00482 0.03406,-0.012058 0.04107,-0.016399 0.014719,-0.00908 0.1211141,-0.00965 0.1443011,-7.798e-4 0.0086,0.00322 0.035129,0.010933 0.058956,0.017042 0.023827,0.00643 0.053996,0.019695 0.067043,0.030306 0.021833,0.017685 0.022629,0.021865 0.010008,0.052332 -0.00756,0.018248 -0.010346,0.036496 -0.00627,0.040596 0.00905,0.00908 2.4685339,0.028377 2.4914773,0.019534 0.014413,-0.00563 0.016142,-0.1116581 0.016142,-0.9914262 V 2.0946972 l -0.023457,-0.00482 c -0.012902,-0.00241 -0.5544988,-0.00723 -1.2035526,-0.010852 -1.1631353,-0.00563 -1.1802546,-0.00563 -1.1909927,0.014309 -0.016528,0.030869 -0.013023,0.039792 0.00531,0.013585 l 0.01623,-0.023151 0.3929322,0.00241 0.3929313,0.00241 -0.3909168,0.00241 c -0.3526187,0.00241 -0.3921934,0.00482 -0.4039468,0.020338 -0.00831,0.011174 -0.012364,0.047991 -0.01119,0.1015937 l 0.00185,0.084005 0.00715,-0.067767 c 0.00514,-0.049117 0.00651,-0.031914 0.00474,0.062542 -0.00161,0.086826 1.664e-4,0.1129121 0.00523,0.078217 0.00523,-0.035933 0.00675,-0.01656 0.00482,0.062541 -0.00201,0.080412 -3.778e-4,0.1006531 0.00539,0.067767 0.00619,-0.035612 0.00707,-0.027894 0.0037,0.032155 -0.010732,0.1885648 0.095703,0.7965751 0.1394449,0.7965751 0.012926,0 0.065677,0.061416 0.065677,0.076448 0,0.00563 -0.00466,0.013746 -0.010306,0.017283 -0.00587,0.00402 -0.00764,-5.546e-4 -0.00418,-0.00965 0.00354,-0.00916 -0.00547,-0.029743 -0.020965,-0.048232 -0.014921,-0.017681 -0.027124,-0.028613 -0.027124,-0.024272 0,0.00402 0.010555,0.019213 0.023457,0.032878 0.023055,0.024518 0.023111,0.025242 0.00322,0.039792 -0.011126,0.00812 -0.034583,0.015193 -0.052123,0.015595 -0.034325,8.039e-4 -0.330902,0.018007 -0.4192124,0.024197 -0.029558,0.00241 -0.059085,0.00723 -0.065612,0.011093 -0.00651,0.00402 -0.017524,0.00322 -0.024438,-0.00241 C 1.3663324,3.456057 1.1275825,3.449388 0.78929446,3.446012 0.47472496,3.442792 0.21323586,3.436202 0.20820766,3.43114 0.19758046,3.420529 0.19503216,0.69689029 0.20563566,0.687493 c 0.003859,-0.003216 0.004421,-0.001608 0.001125,0.004019 -0.007476,0.0132639 1.07358524,0.0121385 1.08668924,-8.0387e-4 0.00498,-0.004823 0.010587,-0.0405153 0.012372,-0.0786993 0.00177,-0.038184 0.00732,-0.0686509 0.012372,-0.0677666 0.00498,8.0388e-4 0.011487,-0.004823 0.014381,-0.0127816 0.00354,-0.009727 5.225e-4,-0.0119777 -0.00912,-0.007235 -0.00788,0.004019 -0.00153,-0.004019 0.014212,-0.0188107 0.023433,-0.0216242 0.037364,-0.0258044 0.077164,-0.0234731 0.03951,0.002412 0.054101,0.009084 0.078249,0.0360939 0.016327,0.018248 0.029269,0.0437308 0.028747,0.0565124 -7.226e-4,0.0180068 -0.00314,0.0156755 -0.010587,-0.0100484 -0.00531,-0.0183283 -0.014269,-0.0362547 -0.019912,-0.0397114 -0.013859,-0.008601 -0.013071,0.008762 0.00105,0.0229104 0.00619,0.006431 0.013923,0.0401937 0.017122,0.0754838 0.00426,0.0470266 0.010812,0.0668823 0.02455,0.0741976 0.011841,0.006431 0.6986873,0.009084 1.8670945,0.007235 l 1.848365,-0.002412 0.00523,-0.15636963 0.00523,-0.15636158 h 0.057332 0.057332 l 0.00257,0.13551713 c 0.00346,0.18448914 0.00346,0.18434444 0.057742,0.18040546 0.042959,-0.003216 0.044036,-0.004019 0.047292,-0.0439719 0.00233,-0.0287787 -0.00297,-0.0493579 -0.01824,-0.0699371 -0.028891,-0.0390683 -0.027179,-0.0658373 0.00587,-0.0918185 0.056995,-0.0448562 0.1810213,-0.0155952 0.1810213,0.0426857 0,0.0115758 -0.00938,0.0329588 -0.020844,0.0475894 -0.020836,0.0264475 -0.02746,0.0805482 -0.012717,0.10373997 0.00434,0.006431 0.054655,0.0271709 0.1119041,0.0454189 0.1207146,0.0383448 0.2372885,0.0962559 0.2650864,0.13159421 0.010659,0.0135855 0.034776,0.0808858 0.053586,0.14963321 0.034398,0.1256777 0.054961,0.1551236 0.06726,0.09632 0.026311,-0.12575001 0.053739,-0.17982671 0.091192,-0.17982671 0.013272,0 0.030708,0.00563 0.038739,0.013023 0.012428,0.011094 0.012548,0.01029 7.782e-4,-0.00482 -0.018111,-0.0239554 -0.05562,-0.023232 -0.07796,0.00161 -0.00981,0.010852 -0.026729,0.042525 -0.037613,0.070339 -0.010885,0.027894 -0.020016,0.044695 -0.020282,0.0373 -7.781e-4,-0.02275 0.030652,-0.089391 0.053948,-0.11419045 0.029357,-0.0312707 0.06136,-0.0298237 0.092295,0.00402 0.013899,0.015274 0.019405,0.024357 0.012243,0.020258 -0.016897,-0.00973 -0.016447,-0.00161 0.00185,0.033923 0.019084,0.0368979 0.047179,0.18485905 0.049503,0.26068045 l 0.00177,0.058763 0.00683,-0.067767 c 0.011254,-0.1117612 0.011166,-0.014798 -1.117e-4,0.1625609 -0.019164,0.3002953 -0.05435,0.4327979 -0.1168432,0.440081 -0.02287,0.00241 -0.03271,-0.00402 -0.05484,-0.03947 -0.016053,-0.025402 -0.031729,-0.039792 -0.038731,-0.035451 -0.00869,0.00563 -0.0099,0.3361963 -0.00466,1.2665843 l 0.00707,1.2593092 0.067365,0.1384995 0.067365,0.1384915 0.00281,0.5368594 c 0.00153,0.295271 2.01e-5,0.5157496 -0.00346,0.4899533 l -0.00627,-0.046946 -0.00185,0.041721 c -0.00169,0.039229 -0.00932,0.080066 -0.026206,0.1407343 l -0.00723,0.026046 0.0157,-0.026046 c 0.00864,-0.014309 0.015796,-0.021383 0.015909,-0.015595 3.328e-4,0.017042 -0.018626,0.041721 -0.032099,0.041721 -0.00691,0 -0.014711,0.00643 -0.017372,0.01447 -0.00314,0.00941 -3.336e-4,0.011656 0.00796,0.00643 0.00979,-0.00643 0.010217,-0.00322 0.00177,0.012701 -0.015201,0.028377 -0.057477,0.054422 -0.097934,0.060291 l -0.033835,0.00482 0.035242,-0.011013 c 0.044036,-0.013827 0.084642,-0.039872 0.084642,-0.054422 0,-0.00643 -0.010563,-0.00161 -0.023457,0.010772 -0.012902,0.011978 -0.053948,0.029663 -0.091214,0.039149 -0.06509,0.016721 -0.1504853,0.056191 -0.1412873,0.065435 0.00241,0.00241 0.015153,-0.00322 0.028264,-0.012299 0.013111,-0.00916 0.028666,-0.016721 0.034559,-0.01664 0.00587,2.41e-5 -0.00466,0.00941 -0.023425,0.02082 -0.01877,0.011415 -0.035194,0.020016 -0.036488,0.018972 -0.00129,-8.039e-4 -0.2627045,-0.00482 -0.5809101,-0.00908 z M 0.57559322,5.8831557 c -0.019293,-0.00836 -0.038055,-0.015032 -0.041697,-0.014872 -0.013561,7.798e-4 0.04611,0.030145 0.061135,0.030145 0.0086,-2.41e-5 -1.439e-4,-0.00723 -0.019438,-0.015274 z M 5.9593473,5.8722227 c 0.031343,-0.014791 0.085955,-0.034808 0.1213665,-0.044294 0.055001,-0.014872 0.068804,-0.023634 0.094724,-0.060532 0.016688,-0.023714 0.035065,-0.063586 0.040837,-0.088579 0.00595,-0.025644 0.012581,-0.2730278 0.015266,-0.5677282 L 6.2362828,4.5887654 6.1664341,4.4493816 6.0965855,4.3099979 6.0911996,2.7877816 6.0858136,1.2655652 6.0467051,1.107194 C 6.0251934,1.0200861 5.9988746,0.93124999 5.9882152,0.90978655 5.9646858,0.86243836 5.8874271,0.8170275 5.7499171,0.76975969 l -0.09382,-0.0322354 -0.4494067,-0.005627 c -0.4318582,-0.005627 -0.5044295,-0.003215 -0.5044295,0.0172029 0,0.004823 0.031665,0.0195341 0.070363,0.0319942 0.072638,0.0233927 0.1663095,0.0750819 0.2239039,0.12345097 l 0.032959,0.0277337 0.2194842,2.9744e-4 c 0.2410892,3.2958e-4 0.3142859,0.0105307 0.3975327,0.0554673 0.039703,0.021383 0.05718,0.03947 0.077349,0.079744 0.025113,0.050242 0.025989,0.058763 0.024028,0.2345545 -0.00137,0.1246327 -0.00796,0.2137984 -0.020844,0.2814605 l -0.018819,0.099029 -0.3596437,0.00563 -0.3596437,0.00563 -0.057863,0.037621 c -0.074471,0.048474 -0.1209156,0.067606 -0.2235944,0.092373 -0.1849618,0.044615 -0.4053199,0.00563 -0.5516161,-0.097695 -0.029518,-0.02082 -0.041834,-0.021383 -0.4274023,-0.019454 -0.2183548,8.039e-4 -0.5787838,0.00482 -0.8009554,0.00868 -0.3630762,0.00643 -0.4039468,0.00482 -0.4039468,-0.00965 0,-0.009 0.089589,-0.1855985 0.1990859,-0.3924354 L 2.9217235,0.93747199 h 0.5660778 0.5660778 l 0.061995,-0.0466247 c 0.068112,-0.0512068 0.1766674,-0.10622394 0.2289747,-0.11606336 0.046102,-0.008682 0.065307,-0.0324765 0.032565,-0.0404349 -0.013409,-0.003215 -0.6623506,-0.004823 -1.442099,-0.003215 l -1.4177239,0.003215 -0.00523,1.24756467 c -0.00523,1.2475084 -0.00523,1.2475727 -0.027123,1.2770025 -0.027693,0.037219 -0.068048,0.052332 -0.1047207,0.039229 -0.015177,-0.00563 -0.037461,-0.023071 -0.049519,-0.039229 -0.021914,-0.029422 -0.021914,-0.029502 -0.027123,-1.2770025 L 1.2986452,0.73434903 1.038034,0.72791803 c -0.14333559,-0.003215 -0.37872358,-0.007235 -0.52308328,-0.008039 -0.2260157,-0.001608 -0.264748,8.0388e-4 -0.2788543,0.0149521 -0.014719,0.0147109 -0.016383,0.15045311 -0.016383,1.33826577 0,1.208625 0.00145,1.3230887 0.016978,1.3359667 0.013931,0.011576 0.1518004,0.013987 0.76880278,0.013425 0.4135149,-3.297e-4 0.7823292,-0.00482 0.8195969,-0.01037 0.079069,-0.011254 0.080114,-0.014389 0.037983,-0.1140618 C 1.8164333,3.1877412 1.771094,2.9216106 1.7370427,2.5583398 1.7093734,2.2631893 1.6984326,2.0710071 1.7087061,2.0607336 c 0.00595,-0.00563 0.4794065,-0.00643 1.2331914,-8.039e-4 l 1.223487,0.00868 0.00265,1.0153656 0.00265,1.0153655 -1.0815879,-0.00723 c -0.594867,-0.00402 -1.4418081,-0.01174 -1.8820836,-0.017367 -0.48987128,-0.00643 -0.80741518,-0.00643 -0.81831888,-5.547e-4 -0.0098,0.00563 -0.033747,0.036014 -0.053216,0.068329 -0.048144,0.079825 -0.15700068,0.3429006 -0.16843178,0.4070819 -0.008409,0.047187 -0.0387226,0.6640886 -0.0441407,0.8983135 -0.00217,0.092839 -0.001286,0.096577 0.0282723,0.1275668 0.0445668,0.046705 0.18859138,0.1466668 0.32756108,0.2274321 l 0.121475,0.07058 1.61057648,0.00723 c 0.8858172,0.00402 1.9201823,0.00892 2.2985901,0.010531 0.3784069,0.00161 0.8466259,0.00402 1.0404834,0.00563 l 0.3524707,0.00241 z M 3.1685659,5.8730269 0.60806082,5.8607276 0.53852572,5.8225436 C 0.40079632,5.7468186 0.25849612,5.6530628 0.19646515,5.5971292 l -0.0632247,-0.056995 0.007074,-0.2140235 c 0.003859,-0.117711 0.0139553,-0.3448939 0.022388,-0.5048488 l 0.0153299,-0.2908256 0.0480958,-0.1209349 c 0.055572,-0.1397294 0.1324005,-0.2936472 0.1582354,-0.3170078 0.015949,-0.014389 0.094255,-0.015032 0.74232635,-0.00643 0.9174456,0.012541 3.012051,0.027653 3.0358625,0.021865 0.01045,-0.00241 0.020451,-0.018087 0.023867,-0.037059 C 4.1974244,4.0096146 4.1869757,2.0748739 4.1755754,2.063475 4.1684254,2.056245 3.7559916,2.051819 2.9298541,2.049889 l -1.2350283,-0.00322 0.00241,0.1094555 c 0.00828,0.3818081 0.089889,0.9907107 0.154388,1.1519358 0.014116,0.03529 0.025668,0.069053 0.025668,0.075162 0,0.00643 -0.045837,0.014309 -0.1120632,0.019213 -0.127054,0.00933 -1.49936855,0.0086 -1.51463975,-8.039e-4 -0.00619,-0.00402 -0.00994,-0.5038684 -0.00994,-1.3347367 V 0.7383684 l 0.5238278,0.002412 0.52382845,0.002412 0.00523,1.2457158 c 0.0049,1.1679972 0.00635,1.2474119 0.023602,1.2727822 0.046504,0.06841 0.1473091,0.065676 0.1879176,-0.00482 0.00958,-0.016721 0.013859,-0.320577 0.017822,-1.2677017 l 0.00523,-1.24571576 1.3880465,-0.002412 c 0.7634257,-0.001608 1.3983128,8.0388e-4 1.410862,0.005627 0.01947,0.007235 0.011761,0.0127816 -0.052493,0.0380233 -0.041424,0.0162383 -0.1054265,0.0523322 -0.1422384,0.0802266 l -0.066931,0.0506441 H 3.504136 c -0.5191806,0 -0.5628567,0.001608 -0.5831553,0.0182479 C 2.9089145,0.94385479 2.8100179,1.1206106 2.7012151,1.3266275 2.5437884,1.6247122 2.5058673,1.7041832 2.515517,1.7158152 c 0.010306,0.01246 0.1311705,0.013505 0.8061524,0.00723 l 0.7940276,-0.00723 0.062734,0.038747 c 0.1495359,0.092301 0.3690466,0.1243674 0.5437357,0.079423 0.086775,-0.022348 0.1584042,-0.053458 0.2298429,-0.099938 0.036191,-0.023554 0.044896,-0.024197 0.3939635,-0.031512 0.2527027,-0.00563 0.3599283,-0.011013 0.367127,-0.019695 0.024848,-0.029904 0.046633,-0.211443 0.046978,-0.3914144 C 5.7604125,1.1199756 5.7589535,1.1060042 5.7356733,1.0591625 5.708012,1.003454 5.6619821,0.97128289 5.5675751,0.94160389 5.5225903,0.92745571 5.4586019,0.92255207 5.2704793,0.91885425 L 5.0307174,0.91403101 4.978361,0.87391768 C 4.9338827,0.83983341 4.8780038,0.81017045 4.7701061,0.76349751 4.7578229,0.75787039 4.9341592,0.75336869 5.1992392,0.75176095 l 0.4499806,-0.002412 0.1129387,0.0398722 c 0.1413533,0.0499206 0.1980256,0.0849615 0.2193283,0.13557339 0.00891,0.021142 0.03279,0.10178666 0.05308,0.17919166 l 0.03689,0.1407262 0.00611,1.5332375 0.00603,1.5332455 0.070363,0.1432021 0.070363,0.1432022 -3.13e-5,0.429293 c -5.23e-5,0.6848044 -0.01361,0.7556498 -0.1511187,0.7899511 -0.028666,0.00723 -0.080267,0.026287 -0.1146687,0.042445 -0.053884,0.025402 -0.074093,0.029261 -0.1459417,0.027814 C 5.7666914,5.8862989 4.5769376,5.8798728 3.16866,5.8731148 Z m 2.671898,-1.0063541 c 0.057815,-0.016077 0.091884,-0.062622 0.091884,-0.1256858 0,-0.044052 -0.00514,-0.057075 -0.035676,-0.090412 L 5.8609959,4.611668 5.5391857,4.608448 C 5.217472,4.605228 5.2173659,4.605228 5.1814866,4.62959 c -0.042533,0.028698 -0.06189,0.062943 -0.062099,0.1100745 -3.336e-4,0.063747 0.0439,0.1185393 0.1048558,0.1300106 0.052678,0.00989 0.5788537,0.00723 0.616213,-0.00322 z M 5.1708841,4.827926 c -0.062775,-0.05611 -0.049527,-0.1586606 0.025049,-0.1940472 0.030595,-0.01455 0.079342,-0.017042 0.329164,-0.017042 0.3240096,0 0.3510969,0.00402 0.3804954,0.061175 0.02787,0.05386 0.021359,0.1026387 -0.019116,0.1431057 l -0.035443,0.035451 H 5.526998 5.2029627 Z M 5.8706036,4.805257 c 0.034245,-0.034245 0.038723,-0.069294 0.014775,-0.1155811 -0.025314,-0.048956 -0.061705,-0.053699 -0.383907,-0.050081 l -0.2901488,0.00322 -0.031536,0.03529 c -0.026616,0.029824 -0.030603,0.041158 -0.025539,0.072992 0.00354,0.022107 0.017147,0.047348 0.032991,0.061095 0.026705,0.023232 0.030354,0.023473 0.3399472,0.023473 h 0.3129555 z m -0.6663057,0.00322 c -0.049213,-0.034486 -0.04808,-0.1137884 0.00201,-0.1425028 0.024687,-0.014148 0.5082728,-0.02492 0.5872173,-0.013103 0.055098,0.00828 0.084739,0.032316 0.09307,0.075403 0.00539,0.027975 0.00129,0.038586 -0.025226,0.065114 l -0.031689,0.031673 H 5.5288895 c -0.2589255,0 -0.3041072,-0.00241 -0.3246181,-0.016721 z M 0.34484592,4.0837957 c 0,-0.00563 -0.00466,-0.00723 -0.010426,-0.00402 -0.00571,0.00322 -0.010426,0.011094 -0.010426,0.016881 0,0.00563 0.00466,0.00723 0.010426,0.00402 0.00571,-0.00322 0.010426,-0.011093 0.010426,-0.016881 z M 1.5827487,4.0165117 c 0.084002,-0.034245 0.00748,-0.072509 -0.1433356,-0.071625 -0.098246,5.547e-4 -0.1550778,0.015434 -0.1640491,0.043007 -0.014357,0.044133 0.2166072,0.065676 0.3073847,0.028618 z M 1.374784,4.0124917 C 1.347838,4.0076717 1.320265,4.0004337 1.313505,3.9962537 1.269268,3.9689217 1.4775355,3.9493877 1.554082,3.9737447 1.599565,3.9882147 1.6002,3.9889377 1.574926,3.9992277 1.535657,4.0152247 1.4300228,4.0222187 1.3747798,4.0124917 Z M 1.464443,3.2376457 1.486325,3.2082237 V 1.8963172 0.58437021 L 1.464443,0.55494841 C 1.433582,0.51346851 1.386459,0.51001181 1.3572224,0.54690941 l -0.02205,0.0280552 v 1.32108729 1.321095 l 0.02205,0.028055 c 0.029237,0.037139 0.07636,0.033763 0.1072206,-0.00804 z M 1.381032,3.2538837 C 1.34608,3.2305717 1.345589,3.2117607 1.345589,1.8931417 c 0,-1.30702729 8e-6,-1.30755784 0.021608,-1.33501819 0.027444,-0.0348881 0.054438,-0.0348881 0.081883,0 0.0216,0.0274925 0.021608,0.0278944 0.021608,1.34475309 0,1.3033856 -2.227e-4,1.3175097 -0.020852,1.3381371 -0.021375,0.021383 -0.048474,0.026447 -0.068804,0.012862 z M 6.2481737,1.7868456 c 0.067437,-0.1414176 0.068466,-0.6078094 0.00169,-0.7746615 -0.01418,-0.035451 -0.022541,-0.044133 -0.040025,-0.041641 -0.05513,0.00804 -0.090595,0.1765147 -0.090543,0.430555 6.35e-5,0.3207298 0.065902,0.5177915 0.1288658,0.3857472 z M 6.1784697,1.7710096 C 6.1505347,1.7012336 6.1304947,1.544502 6.1304947,1.3958978 c 0,-0.2059767 0.039518,-0.41697761 0.078096,-0.41697761 0.019582,0 0.046657,0.075805 0.063265,0.17706931 0.038321,0.2336782 -0.00177,0.6568859 -0.062276,0.6568859 -0.00788,0 -0.021906,-0.018811 -0.031118,-0.041882 z m -1.4219876,0.017765 c 0.044157,-0.013988 0.1027906,-0.038586 0.1303056,-0.054583 0.049052,-0.028618 0.1803299,-0.1463534 0.1803299,-0.1617315 0,-0.00402 -0.029317,0.021464 -0.065154,0.057316 -0.035837,0.035772 -0.076883,0.070821 -0.091213,0.077815 -0.021078,0.01029 -0.020081,0.00828 0.00523,-0.010531 0.017203,-0.012782 0.057075,-0.049358 0.088608,-0.08132 0.031536,-0.031914 0.061062,-0.056834 0.065628,-0.055306 0.00458,0.00161 0.023328,-0.02902 0.041697,-0.067847 0.030322,-0.064069 0.033304,-0.079182 0.032308,-0.1643441 -8.843e-4,-0.079905 -3.14e-5,-0.085299 0.00611,-0.036496 0.00691,0.054824 0.00732,0.055387 0.00892,0.013586 0.00314,-0.08169 -0.047493,-0.2523683 -0.070669,-0.2380433 -0.00547,0.00322 -0.015169,-0.00482 -0.021504,-0.017605 -0.011037,-0.02275 -0.010836,-0.02291 0.00466,-0.00322 0.018545,0.023152 0.021464,0.014309 0.00531,-0.015997 -0.00603,-0.011254 -0.014494,-0.018248 -0.018819,-0.015595 -0.00434,0.00241 -0.030796,-0.018489 -0.058803,-0.047027 C 4.9714116,0.9393087 4.9329786,0.9063497 4.9140056,0.8946935 4.8950346,0.8829569 4.8795116,0.87114 4.8795116,0.8684068 c 0,-0.0122993 0.069302,0.0373802 0.1156863,0.082799 0.028111,0.027573 0.051102,0.045499 0.051102,0.039953 0,-0.00563 -0.026496,-0.033763 -0.058876,-0.0626219 C 4.8308847,0.7890366 4.5842536,0.73334419 4.3759899,0.79047553 c -0.086561,0.0237143 -0.2069679,0.079262 -0.2027057,0.0934182 0.00145,0.004823 -0.02324,0.0322354 -0.054768,0.0611748 -0.031536,0.028939 -0.074929,0.082397 -0.096426,0.11880457 -0.021504,0.036416 -0.039092,0.061175 -0.039092,0.055065 0,-0.024277 0.082646,-0.13699617 0.1347679,-0.18381387 0.030322,-0.0272513 0.050668,-0.0495187 0.045226,-0.0495187 -0.016865,0 -0.1331827,0.12775167 -0.1613529,0.17721407 -0.048755,0.085605 -0.063217,0.1489258 -0.057967,0.2538715 0.0049,0.098338 0.031994,0.1897224 0.052469,0.1770614 0.00627,-0.00402 0.00788,-0.00161 0.0037,0.00482 -0.00805,0.013023 0.017685,0.069214 0.037219,0.081288 0.00683,0.00402 0.00185,-0.00957 -0.011198,-0.030628 -0.035708,-0.057799 -0.020314,-0.045982 0.024036,0.018409 0.056376,0.081859 0.1593206,0.1559999 0.2765641,0.199192 0.020378,0.00723 0.02939,0.013987 0.020016,0.014389 -0.035965,0.00161 -0.1846371,-0.083812 -0.2420594,-0.1389818 -0.032364,-0.03111 -0.058852,-0.052654 -0.058852,-0.047831 0,0.018409 0.1210715,0.1153801 0.1880246,0.1505657 0.1560529,0.082003 0.3513743,0.098499 0.5229347,0.044133 z m -0.2548909,0.016479 c 0.024366,-0.00241 0.064238,-0.00241 0.088608,0 0.024365,0.00241 0.00442,0.00402 -0.044302,0.00402 -0.048739,0 -0.068675,-0.00161 -0.044301,-0.00402 z m -0.083395,-0.00973 c 0.00715,-0.00322 0.018899,-0.00322 0.026062,0 0.00715,0.00322 0.00129,0.00563 -0.013031,0.00563 -0.014333,0 -0.020201,-0.00241 -0.013031,-0.00563 z m 0.2527927,-0.00322 c 0.035644,-0.011415 0.063048,-0.011415 0.036488,0 -0.011463,0.00482 -0.030234,0.00884 -0.041697,0.00868 -0.016761,-2.492e-4 -0.01574,-0.00161 0.00523,-0.00868 z m -0.2938385,-0.00723 c 0.00756,-0.00322 0.01652,-0.00241 0.019984,8.039e-4 0.00346,0.00322 -0.00265,0.00563 -0.013682,0.00563 -0.012147,-4.984e-4 -0.014615,-0.00322 -0.00627,-0.00643 z m 0.3648552,-0.01045 c 0.00756,-0.00322 0.01652,-0.00241 0.019984,8.038e-4 0.00346,0.00322 -0.00265,0.00563 -0.013682,0.00563 -0.012147,-4.984e-4 -0.014614,-0.00322 -0.00627,-0.00643 z m 0.04365,-0.013746 c 0.0086,-0.00563 0.02033,-0.010129 0.026062,-0.010129 0.00571,0 0.00338,0.00482 -0.00523,0.010129 -0.0086,0.00563 -0.02033,0.010129 -0.026062,0.010129 -0.00571,0 -0.00338,-0.00482 0.00523,-0.010129 z m 0.042565,-0.014229 c 0.00241,-0.00241 0.01607,-0.00941 0.030403,-0.016238 0.024574,-0.011737 0.024904,-0.011495 0.00579,0.00402 -0.016608,0.013344 -0.05054,0.02492 -0.036231,0.01238 z M 4.5005977,1.7001075 c -0.03652,-0.040355 -0.015322,-0.089053 0.039591,-0.090966 0.042517,-0.00161 0.057421,0.011415 0.055516,0.047991 -0.00289,0.055869 -0.06009,0.081698 -0.09511,0.043007 z m 0.074487,-0.00402 c 0.00691,-0.00723 0.012508,-0.017123 0.012508,-0.02283 0,-0.00563 -0.00611,-0.00161 -0.013618,0.00828 -0.019438,0.026608 -0.063578,0.018409 -0.067976,-0.012621 -0.00185,-0.013184 0.00225,-0.030788 0.00909,-0.039068 0.0074,-0.00892 0.00819,-0.015032 0.00193,-0.015032 -0.00579,0 -0.013433,0.00723 -0.016914,0.016479 -0.016512,0.043007 0.00153,0.077333 0.04058,0.077333 0.012042,0 0.027517,-0.00563 0.034398,-0.01254 z m -0.021375,-0.04566 c -0.00994,-0.00989 -0.029848,0.00643 -0.022444,0.018168 0.00442,0.00723 0.010225,0.00723 0.017717,-5.386e-4 0.00611,-0.00643 0.00827,-0.014068 0.00474,-0.017605 z m 0.030282,-0.019534 c -0.00338,-0.00884 -0.011053,-0.016077 -0.01701,-0.016077 -0.00683,0 -0.00619,0.00723 0.00185,0.020418 0.014381,0.022991 0.02451,0.020177 0.015129,-0.00402 z m 0.506071,-0.1357342 c 0.012476,-0.025644 0.02447,-0.044937 0.026656,-0.042686 0.00474,0.00482 -0.037404,0.089391 -0.04447,0.089391 -0.00265,0 0.00531,-0.020981 0.017814,-0.046705 z M 3.9737513,1.4470077 c -0.00643,-0.018328 -0.011303,-0.038506 -0.010892,-0.044856 4.003e-4,-0.00643 0.00748,0.00723 0.015676,0.029341 0.00822,0.022428 0.013119,0.042605 0.010892,0.044856 -0.00225,0.00241 -0.00928,-0.010933 -0.015676,-0.029341 z m 1.1472548,-0.019856 c 2.227e-4,-0.0086 0.00402,-0.027332 0.00865,-0.041721 0.00675,-0.020981 0.0084,-0.021946 0.00865,-0.00482 2.219e-4,0.011495 -0.0037,0.030226 -0.00865,0.041721 -0.00547,0.012782 -0.00883,0.014791 -0.00865,0.00482 z M 3.9537292,1.3593854 c 2.114e-4,-0.017203 0.00257,-0.022991 0.00523,-0.012862 0.00265,0.010129 0.00249,0.024197 -3.891e-4,0.031271 -0.00289,0.00723 -0.00498,-0.00161 -0.00482,-0.018409 z m 1.0356899,-0.098491 c -0.034768,-0.038425 -0.00185,-0.1009264 0.048168,-0.091401 0.023505,0.00482 0.023425,0.00482 -0.00225,0.00643 -0.032718,0.00161 -0.051601,0.019454 -0.051601,0.048313 0,0.023071 0.017959,0.046946 0.035346,0.046946 0.00571,0 0.00193,-0.00643 -0.0083,-0.013585 -0.026576,-0.019454 -0.018393,-0.063586 0.012605,-0.068008 0.013216,-0.00161 0.031689,0.00322 0.041046,0.01045 0.014888,0.012139 0.016053,0.011254 0.0093,-0.00643 -0.00426,-0.011254 -0.0041,-0.016881 3.336e-4,-0.01246 0.012516,0.012541 0.011913,0.079905 -7.781e-4,0.08796 -0.022259,0.014148 -0.067976,0.010048 -0.083847,-0.00723 z m 0.083335,-0.00161 c 0.011222,-0.018168 -0.00153,-0.022026 -0.015852,-0.00482 -0.00822,0.00989 -0.00901,0.015917 -0.00209,0.015917 0.00611,0 0.01418,-0.00482 0.017958,-0.011094 z m -0.026488,-0.029985 c 0,-0.00563 -0.00466,-0.012701 -0.010426,-0.016238 -0.00571,-0.00322 -0.010426,8.039e-4 -0.010426,0.00981 0,0.00892 0.00466,0.016238 0.010426,0.016238 0.00571,0 0.010426,-0.00402 0.010426,-0.00981 z m -1.0938341,0.00402 c 4.003e-4,-0.016721 0.0049,-0.039792 0.00996,-0.051287 0.00619,-0.013907 0.00715,-0.00563 0.00305,0.026045 -0.00732,0.055226 -0.014028,0.068329 -0.012991,0.025161 z m 0.096451,-0.00482 c -0.00715,-0.00723 -0.00819,-0.024679 -0.00289,-0.048152 0.00458,-0.020338 0.0045,-0.032878 -2.669e-4,-0.027894 -0.00474,0.00482 -0.01086,0.018489 -0.013618,0.029984 -0.00482,0.020017 -0.00506,0.020017 -0.00619,-8.039e-4 -6.664e-4,-0.011978 0.00898,-0.030788 0.021431,-0.041721 0.012452,-0.010933 0.019213,-0.013987 0.015024,-0.00643 -0.00938,0.016077 -0.00113,0.01656 0.026689,0.00161 0.015595,-0.00836 0.02447,-0.0082 0.033192,6.19e-4 0.00897,0.00908 0.00675,0.010129 -0.00894,0.00402 -0.018272,-0.00643 -0.01914,-0.00563 -0.00699,0.00924 0.00764,0.00932 0.012299,0.027814 0.010426,0.041078 -0.00273,0.019293 -0.00987,0.024036 -0.036319,0.023956 -0.018103,-2.42e-5 -0.030724,0.00322 -0.028055,0.00804 0.00764,0.012299 0.050226,0.00924 0.064093,-0.00482 0.00691,-0.00723 0.013151,-0.024438 0.013931,-0.039068 0.00137,-0.025724 0.00161,-0.025804 0.00603,-0.00241 0.00871,0.04574 -0.055757,0.084809 -0.087501,0.053056 z m 1.082424,-0.020016 c 0,-0.014309 0.00233,-0.020177 0.00523,-0.013023 0.00289,0.00723 0.00289,0.018891 0,0.026045 -0.00289,0.00723 -0.00523,0.00161 -0.00523,-0.013022 z M 5.120061,1.1702194 c -4.446e-4,-0.00643 -0.00354,-0.02074 -0.00683,-0.031271 -0.00571,-0.018167 -0.00539,-0.018167 0.00595,-4.582e-4 0.00659,0.010209 0.00964,0.024357 0.00683,0.031271 -0.0037,0.00908 -0.00539,0.00924 -0.00595,4.502e-4 z M 4.529513,0.95744829 c -0.019213,-0.021222 -0.018835,-0.0409976 0.00137,-0.0698567 0.019438,-0.0277337 0.058048,-0.0301453 0.079326,-0.004823 0.019397,0.0229908 0.022902,0.0719467 0.00595,0.0827187 -0.021833,0.013907 -0.07091,0.00933 -0.086584,-0.00804 z m 0.016496,-0.00402 c -0.0074,-0.00892 -0.010065,-0.0266886 -0.00627,-0.0417211 0.00788,-0.0314315 0.051255,-0.0364959 0.067887,-0.008039 0.00587,0.0100484 0.010772,0.0129424 0.010941,0.006431 5.555e-4,-0.0192126 -0.028079,-0.0369782 -0.053627,-0.0333608 -0.03062,0.004019 -0.049527,0.0521714 -0.029968,0.075725 0.0074,0.00892 0.015836,0.016238 0.018706,0.016238 0.00289,0 -5.563e-4,-0.00723 -0.00764,-0.015515 z m 0.069262,-5.868e-4 c 0.00938,-0.0244379 -7.781e-4,-0.0273318 -0.015129,-0.00402 -0.00805,0.012862 -0.00875,0.020338 -0.00185,0.020338 0.00595,0 0.013618,-0.00724 0.01701,-0.016077 z m -0.4238041,-0.071785 c 0,-0.003216 0.00938,-0.0102092 0.020853,-0.016399 0.011463,-0.006431 0.020853,-0.008843 0.020853,-0.005627 0,0.003216 -0.00938,0.0102092 -0.020853,0.016399 -0.011463,0.006431 -0.020853,0.008843 -0.020853,0.005627 z m 0.6463142,-0.0319945 c -0.014333,-0.0082 -0.021094,-0.0150324 -0.015024,-0.0152736 0.00603,-2.0097e-4 0.020145,0.006431 0.031271,0.0149521 0.02574,0.0194538 0.017516,0.0196145 -0.016254,3.3763e-4 z M 4.2748617,0.83346674 c 0.0086,-0.005627 0.02033,-0.0101288 0.026062,-0.0101288 0.00571,0 0.00338,0.004823 -0.00523,0.0101288 -0.0086,0.005627 -0.02033,0.0101288 -0.026062,0.0101288 -0.00571,0 -0.00338,-0.004823 0.00523,-0.0101288 z m 0.49516,-0.0104504 c -0.013746,-0.005627 -0.015523,-0.009164 -0.00523,-0.009566 0.0086,-3.1351e-4 0.022669,0.004019 0.031271,0.009566 0.019052,0.0122993 0.00257,0.0122993 -0.026062,0 z M 4.3563022,0.80549192 c 0.00756,-0.003216 0.01652,-0.002412 0.019984,8.0387e-4 0.00346,0.003216 -0.00265,0.005627 -0.013682,0.005627 -0.012147,-4.984e-4 -0.014614,-0.003215 -0.00627,-0.006431 z m 0.3042632,-0.008923 c -0.03939,-0.009084 -0.047549,-0.0132639 -0.026062,-0.0134247 0.017203,-1.1254e-4 0.050041,0.005627 0.072968,0.0135051 0.052372,0.0172833 0.028409,0.0172029 -0.046906,-1.447e-4 z M 4.398,0.79496092 c 0.00756,-0.003216 0.01652,-0.002412 0.019984,8.0387e-4 0.00346,0.003215 -0.00265,0.005627 -0.013682,0.005627 -0.012147,-5.0644e-4 -0.014614,-0.003216 -0.00627,-0.006431 z m 0.046263,-0.0105308 c 0.01004,-0.002412 0.026447,-0.002412 0.036488,0 0.01004,0.002412 0.00185,0.004823 -0.01824,0.004823 -0.020065,0 -0.028272,-0.002412 -0.01824,-0.004823 z m 0.088608,-0.0101288 c 0.00715,-0.003216 0.018891,-0.003216 0.026062,0 0.00715,0.003215 0.00129,0.005627 -0.013031,0.005627 -0.014333,0 -0.020201,-0.002412 -0.013031,-0.005627 z M 3.4815769,1.6835236 c 0.3119056,-0.00241 0.5712129,-0.00892 0.5762388,-0.013907 0.00523,-0.00563 -0.0049,-0.026608 -0.023827,-0.050001 -0.078273,-0.0971 -0.1326183,-0.2682207 -0.1180135,-0.3716231 0.01004,-0.071062 0.044269,-0.1677926 0.078458,-0.2217004 0.017999,-0.028377 0.027669,-0.053699 0.022476,-0.058924 -0.00498,-0.00482 -0.2490346,-0.00804 -0.5444214,-0.00643 L 2.9371707,0.96334869 2.7514058,1.3125678 C 2.6492342,1.5046375 2.5655533,1.6672612 2.5654472,1.6739495 c -3.224e-4,0.020177 0.019269,0.022107 0.1874474,0.018007 0.088868,-0.00241 0.4167742,-0.00643 0.7286799,-0.00868 z M 2.5862627,1.6663207 c 8.36e-5,-0.00804 0.081006,-0.1671014 0.1798219,-0.3534394 l 0.1796643,-0.33879281 0.5206026,-0.00241 c 0.2976554,-0.00161 0.52461,0.00161 0.5299597,0.00643 0.00555,0.00563 -0.00153,0.025885 -0.017291,0.049599 -0.014655,0.022187 -0.036448,0.06841 -0.048425,0.1027994 -0.056456,0.1621575 -0.028803,0.3266222 0.080058,0.4761026 0.01951,0.026769 0.031632,0.051126 0.02693,0.05402 -0.00466,0.00322 -0.3332058,0.00868 -0.730011,0.012862 -0.6161568,0.00643 -0.7214402,0.00563 -0.721306,-0.00723 z M 3.6493985,1.5052243 c 0,-0.014711 -0.2904173,-0.1620772 -0.5131234,-0.2604231 -0.038546,-0.017042 -0.07021,-0.035853 -0.070363,-0.041882 -1.56e-4,-0.00563 0.018682,-0.029422 0.041866,-0.052091 0.030266,-0.029583 0.041287,-0.048313 0.039092,-0.06648 -0.00426,-0.03529 -0.029116,-0.041158 -0.029116,-0.00723 0,0.026849 -0.00918,0.038586 -0.071448,0.091167 -0.042123,0.035612 -0.035153,0.052814 0.033104,0.081979 0.1234237,0.052734 0.4512733,0.2121022 0.4657479,0.2264594 0.013843,0.013746 0.0037,0.014791 -0.088608,0.00924 -0.32302,-0.019293 -0.4146464,-0.020499 -0.4097187,-0.00563 0.00378,0.011335 0.050363,0.017123 0.2072774,0.025885 0.3232475,0.018007 0.3952931,0.017766 0.3952931,-0.00161 z m -0.052123,-0.00482 c 0,-0.00563 0.00675,-0.01045 0.015024,-0.01045 0.00826,0 0.017918,0.00482 0.021463,0.01045 0.00354,0.00563 -0.00322,0.01045 -0.015024,0.01045 -0.011809,0 -0.021463,-0.00482 -0.021463,-0.01045 z M 5.6746874,1.6541581 C 5.7166496,1.6226462 5.7461438,1.2214406 5.7145515,1.1119449 5.6968261,1.0505289 5.650338,1.0074412 5.5754595,0.98304359 5.5328783,0.96921699 5.4709599,0.96423299 5.2990659,0.96085669 c -0.248902,-0.00482 -0.2449671,-0.00643 -0.1953455,0.068731 0.066304,0.1001949 0.093486,0.2591691 0.06398,0.3742116 -0.019181,0.07476 -0.056392,0.1526155 -0.094789,0.1982434 -0.055604,0.066078 -0.059688,0.065114 0.2788905,0.065114 0.2282159,0 0.3099201,-0.00322 0.3228858,-0.013023 z m -0.6092652,-0.00241 c -0.00378,-0.00402 0.011343,-0.033441 0.033658,-0.065274 0.056295,-0.080388 0.083883,-0.1595852 0.09039,-0.2595469 0.00683,-0.1055809 -0.00827,-0.1740469 -0.060057,-0.2716131 -0.021817,-0.041078 -0.036938,-0.077493 -0.03361,-0.080789 0.013023,-0.013023 0.3526942,-0.00563 0.4228588,0.0094 0.1656471,0.035129 0.193675,0.078056 0.1941204,0.2973129 2.226e-4,0.1315219 -0.023015,0.3405613 -0.0398,0.3573462 -0.010965,0.010933 -0.5977183,0.023714 -0.6075682,0.013264 z M 5.49197,1.5235446 c 0.00281,-0.00844 -0.00651,-0.013023 -0.026576,-0.013023 -0.033498,0 -0.060451,-0.023232 -0.048803,-0.042123 0.00402,-0.00643 0.032235,-0.027734 0.062758,-0.047268 C 5.509872,1.4015966 5.537188,1.3818216 5.540058,1.3771586 5.549618,1.3617246 5.531548,1.3460486 5.47107,1.3174306 5.39803,1.2828636 5.395032,1.2651786 5.450893,1.1983688 5.504986,1.1336568 5.507534,1.1281908 5.494833,1.1044438 5.482952,1.0822568 5.408441,1.0570148 5.3833171,1.0666618 c -0.024574,0.00941 -0.00707,0.023554 0.038007,0.030788 0.054422,0.00868 0.05447,0.028136 2.227e-4,0.093788 -0.060926,0.073715 -0.056625,0.1039812 0.020579,0.1448019 0.025161,0.013344 0.047203,0.028698 0.04898,0.034165 0.00177,0.00563 -0.015466,0.02066 -0.038321,0.033682 -0.049848,0.028457 -0.07714,0.06648 -0.06812,0.09493 0.011198,0.03529 0.097275,0.055065 0.1072899,0.024679 z M 5.3388424,0.69704122 c 0.018344,-0.009807 0.020161,-0.0229908 0.020161,-0.14627296 0,-0.1466749 -0.00322,-0.15455286 -0.057356,-0.14095935 l -0.026038,0.006431 v 0.13480168 c 0,0.11738172 0.00233,0.13616826 0.01824,0.14542889 0.022886,0.0133443 0.020989,0.0133443 0.044993,4.6625e-4 z m -0.045419,-0.0165598 c -0.0041,-0.004019 -0.0074,-0.0623806 -0.0074,-0.12963276 0,-0.12728545 0.00611,-0.14389349 0.04722,-0.12812148 0.013328,0.004823 0.015466,0.0268494 0.013031,0.13258298 -0.00273,0.11824991 -0.00434,0.12666647 -0.024197,0.12951219 -0.011704,0.001608 -0.024607,-2.7332e-4 -0.028666,-0.004019 z m 0.2929832,-0.0176048 0.0033,-0.0397918 -0.03976,0.003216 c -0.032485,0.002412 -0.040387,0.008039 -0.043192,0.0274925 -0.00587,0.0416407 0.00547,0.0556281 0.042453,0.0520107 0.031126,-0.003215 0.034221,-0.006431 0.037227,-0.0430073 z m -0.066987,0.0196145 c -0.010386,-0.0270102 0.00418,-0.0494383 0.029783,-0.0457405 0.017227,0.002412 0.023497,0.0102896 0.023497,0.0294218 0,0.0191322 -0.00627,0.0269298 -0.023497,0.0294218 -0.0141,0.001608 -0.026013,-0.003216 -0.029783,-0.0130228 z m 0.053329,-0.0998331 c 0.00828,-0.0134247 -0.020997,-0.0250005 -0.042404,-0.0167206 -0.020885,0.008039 -0.00938,0.0272513 0.016294,0.0272513 0.010796,0 0.022541,-0.004823 0.02611,-0.0105307 z m 0.029398,-0.0484736 c 0.014446,-0.0144697 -0.018055,-0.0348078 -0.055508,-0.0348078 -0.037452,0 -0.069945,0.0204184 -0.055508,0.0348078 0.00892,0.008923 0.1020864,0.008923 0.1110126,0 z m -0.076352,-0.0139874 c 0,-0.005627 0.012002,-0.0104504 0.026673,-0.0104504 0.015129,0 0.023891,0.004823 0.020233,0.0104504 -0.00354,0.005627 -0.015547,0.0104504 -0.026673,0.0104504 -0.011126,0 -0.020233,-0.004823 -0.020233,-0.0104504 z M 1.3872907,0.49640225 c 0.013505,-0.004823 0.013425,-0.005627 -6.118e-4,-0.006431 -0.00894,-4.5821e-4 -0.025354,0.006431 -0.036488,0.015354 -0.019912,0.0159167 -0.019904,0.0160775 6.117e-4,0.006431 0.011463,-0.005627 0.027886,-0.0122189 0.036488,-0.015354 z m 0.078796,0.008039 c -0.011126,-0.008441 -0.027549,-0.0151128 -0.036488,-0.0148717 -0.00894,2.5724e-4 -0.00217,0.007235 0.015024,0.0147913 0.040893,0.0187303 0.046175,0.0187303 0.021463,4.823e-5 z M 1.1709826,5.9124489 c 0.2680382,-0.00161 0.7066465,-0.00161 0.9746855,0 0.2680382,0.00161 0.048731,0.00322 -0.4873432,0.00322 -0.5360764,0 -0.75538129,-0.00161 -0.4873423,-0.00322 z m 4.8551843,-0.033924 c 0.0086,-0.00563 0.022669,-0.00981 0.031271,-0.00949 0.010306,3.376e-4 0.00854,0.00402 -0.00523,0.00949 -0.028658,0.012299 -0.045114,0.012299 -0.026062,0 z M 6.2467267,5.6908931 c 0,-0.014309 0.00233,-0.020177 0.00523,-0.013023 0.00289,0.00723 0.00289,0.018891 0,0.026046 -0.00289,0.00723 -0.00523,0.00161 -0.00523,-0.013023 z M 0.07643876,5.4980356 c 1.1094e-4,-0.02291 0.002251,-0.03111 0.004743,-0.018087 0.002492,0.012942 0.002412,0.031753 -2.1142e-4,0.041721 -0.002572,0.00997 -0.004662,-6.672e-4 -0.004502,-0.023554 z M 6.2707384,5.0549964 c 0,-0.2666049 0.00137,-0.3756665 0.00297,-0.2423681 0.00161,0.1333065 0.00161,0.3514378 0,0.4847362 -0.00161,0.1333065 -0.00297,0.024277 -0.00297,-0.2423681 z M 0.12609167,4.5276951 c 8.36e-5,-0.011013 0.004904,-0.02701 0.0107398,-0.035612 0.007717,-0.011415 0.008698,-0.00723 0.003617,0.015676 -0.008577,0.038345 -0.0145421,0.046625 -0.014325,0.020016 z M 6.1899242,4.4237622 6.1304133,4.30421 l 0.00225,-0.2474647 0.00225,-0.2474727 0.00555,0.255407 0.00555,0.2553989 0.055371,0.1079442 c 0.030459,0.059406 0.053715,0.1095922 0.051697,0.1116179 -0.00201,0.00241 -0.030459,-0.050162 -0.063192,-0.1158784 z m -6.04282408,0.042284 c 0,-0.00563 0.004582,-0.017444 0.0101047,-0.026046 0.005547,-0.0086 0.0101047,-0.010933 0.0101047,-0.00482 0,0.00563 -0.004582,0.017444 -0.0101047,0.026045 -0.005547,0.0086 -0.0101047,0.010933 -0.0101047,0.00482 z m 0.0208525,-0.052091 c 0,-0.00563 0.004582,-0.017444 0.0101047,-0.026046 0.005547,-0.0086 0.0101047,-0.010933 0.0101047,-0.00482 0,0.00563 -0.004582,0.017444 -0.0101047,0.026046 -0.005547,0.0086 -0.0101047,0.010933 -0.0101047,0.00482 z m 0.0208525,-0.052091 c 0,-0.00563 0.004582,-0.017444 0.0101047,-0.026046 0.005547,-0.0086 0.0101047,-0.010933 0.0101047,-0.00482 0,0.00563 -0.004582,0.017444 -0.0101047,0.026045 -0.005547,0.0086 -0.0101047,0.010933 -0.0101047,0.00482 z m 0.0212705,-0.052091 c 0,-0.00563 0.00667,-0.022187 0.014896,-0.036496 0.00819,-0.014309 0.014896,-0.021383 0.014896,-0.015676 0,0.00563 -0.00667,0.022187 -0.014896,0.036496 -0.00819,0.014309 -0.014896,0.021383 -0.014896,0.015595 z M 3.5998879,4.0570267 4.128928,4.0538112 V 3.0793066 2.1047939 l -0.6228603,-0.00322 -0.6228603,-0.00241 0.6254665,1.286e-4 0.6254664,1.206e-4 v 0.9798986 0.9798986 l -0.5316463,1.045e-4 -0.531647,1.126e-4 0.5290409,-0.00322 z m -1.5636673,-0.01045 c 0.1476363,-0.00161 0.3892231,-0.00161 0.5368594,0 0.1476363,0.00161 0.026841,0.00322 -0.2684297,0.00322 -0.2952727,0 -0.4160652,-0.00161 -0.2684297,-0.00322 z m -1.0166863,-0.01045 0.2107911,-0.00322 -0.00474,-0.033682 c -0.00418,-0.029743 -0.0037,-0.030628 0.0045,-0.00723 0.01914,0.05394 0.02607,0.052252 -0.2049847,0.04976 l -0.21630728,-0.00241 z m 0.6283764,-0.00161 c 0,-0.017444 0.018489,-0.021785 0.024639,-0.00563 0.00362,0.00949 -3.22e-5,0.015595 -0.00933,0.015595 -0.00842,0 -0.015306,-0.00402 -0.015306,-0.00981 z m 0.020844,-0.044213 c 0,-0.022106 -0.033313,-0.04976 -0.080098,-0.0664 -0.021882,-0.00804 -0.031383,-0.014389 -0.021126,-0.01463 0.049888,-0.00161 0.1308901,0.067204 0.1073872,0.090677 -0.00338,0.00322 -0.00619,-8.039e-4 -0.00619,-0.00957 z m -0.3700675,-0.0705 c 0.011463,-0.00482 0.02906,-0.011897 0.039092,-0.015033 0.016592,-0.00563 0.01824,-0.025081 0.01824,-0.2196345 V 3.4712596 l -0.3205513,-0.00322 -0.32055208,-0.00322 0.32315818,2.251e-4 0.3231575,2.17e-4 0.00281,0.2148595 c 0.00305,0.2325207 0.00354,0.2301814 -0.054937,0.2421029 -0.023272,0.00482 -0.025941,0.00402 -0.010426,-0.00322 z m 0.2178909,-0.025563 c -0.00305,-0.00804 -0.0041,-0.032637 -0.00225,-0.054744 l 0.0033,-0.040194 0.070813,-0.00322 0.070813,-0.00322 -0.00305,-0.075082 -0.00305,-0.075082 -0.070363,-0.00322 -0.070363,-0.00322 v -0.088137 c 0,-0.048474 0.00354,-0.088137 0.0078,-0.088153 0.00426,-8.1e-6 0.00627,0.037541 0.00442,0.083394 l -0.00338,0.083426 0.060733,1.045e-4 c 0.033401,8.84e-5 0.066818,0.00402 0.074254,0.00876 0.00958,0.00643 0.012621,0.03111 0.010426,0.085846 l -0.00314,0.077252 -0.070363,0.00322 -0.070363,0.00322 v 0.04558 c 0,0.026689 0.00539,0.04775 0.013031,0.050805 0.010209,0.00402 0.010137,0.00563 -3.223e-4,0.00643 -0.00732,4.501e-4 -0.015869,-0.00563 -0.018939,-0.013746 z m -0.1060487,-0.2121906 0.00281,-0.2058802 0.028666,-0.00322 0.028666,-0.00322 v 0.094142 c 0,0.1101629 0.00474,0.1157257 0.098976,0.1157257 h 0.058651 l -0.00322,0.039068 -0.00322,0.039068 -0.062188,0.00322 c -0.034205,0.00161 -0.068209,0.0082 -0.07558,0.014309 -0.00756,0.00643 -0.013393,0.03328 -0.013393,0.061979 0,0.049599 -7.556e-4,0.050885 -0.031496,0.050885 H 1.4077195 Z M 0.20151517,3.4536306 c -0.007154,-0.00322 -0.0130308,-0.010129 -0.0130308,-0.016078 0,-0.00723 0.004582,-0.00723 0.0137221,5.628e-4 0.007958,0.00643 0.0727908,0.012782 0.15376025,0.01463 l 0.140043,0.00322 -0.1407303,0.00161 c -0.077405,7.659e-4 -0.1465937,-8.097e-4 -0.15376023,-0.00403 z M 1.61962,3.4528509 c 0.033176,-0.00241 0.084777,-0.00241 0.1146686,4.02e-5 0.029888,0.00241 0.00273,0.00402 -0.060323,0.00402 -0.063064,-1.6e-5 -0.087524,-0.00161 -0.05435,-0.00402 z m 0.2186755,-0.010209 c 0.015844,-0.00241 0.039301,-0.00241 0.052123,1.125e-4 0.012822,0.00241 -1.447e-4,0.00482 -0.028811,0.00402 -0.028666,-8.04e-5 -0.039157,-0.00241 -0.023312,-0.00482 z M 0.1831177,2.0688527 c 8.1e-7,-0.7453442 0.001206,-1.0487264 0.002733,-0.6741692 0.001527,0.3745492 0.001527,0.9843762 0,1.3551713 -0.001527,0.3708031 -0.002733,0.06431 -0.002733,-0.6810021 z M 6.1224984,2.582255 c -0.00137,-0.4285695 1.109e-4,-0.7792275 0.00338,-0.7792275 0.00322,0 0.017725,0.014068 0.032203,0.031271 0.031295,0.037219 0.06103,0.039711 0.094734,0.00804 0.019502,-0.018328 0.023224,-0.019373 0.017685,-0.00482 -0.016946,0.044133 -0.077711,0.050483 -0.1114845,0.011656 l -0.023385,-0.02693 -0.00531,0.7696453 -0.00531,0.7696373 z M 1.8941688,3.2985311 c -0.010057,-0.026206 -0.00707,-0.032959 0.00523,-0.011817 0.00611,0.01045 0.00887,0.021222 0.00619,0.023875 -0.00265,0.00241 -0.0078,-0.00241 -0.011383,-0.012058 z m -0.026528,-0.08386 c 5.008e-4,-0.012138 0.00297,-0.014631 0.00627,-0.00643 0.00297,0.00723 0.00265,0.01656 -8.038e-4,0.020016 -0.00346,0.00322 -0.00595,-0.00241 -0.00547,-0.013666 z m -0.010426,-0.041721 c 5e-4,-0.012139 0.00297,-0.01463 0.00627,-0.00643 0.00297,0.00723 0.00265,0.01656 -8.039e-4,0.020017 -0.00346,0.00322 -0.00595,-0.00241 -0.00547,-0.013666 z m -0.0096,-0.046062 c 0,-0.014309 0.00233,-0.020177 0.00523,-0.013023 0.00289,0.00723 0.00289,0.018891 0,0.026046 -0.00289,0.00723 -0.00523,0.00161 -0.00523,-0.013023 z m -0.01004,-0.057316 c 2.114e-4,-0.017203 0.00257,-0.022991 0.00523,-0.012862 0.00265,0.010129 0.00249,0.024197 -3.891e-4,0.031271 -0.00289,0.00723 -0.00498,-0.00161 -0.00482,-0.018409 z m -0.010812,-0.057316 c 0,-0.014309 0.00233,-0.020177 0.00523,-0.013023 0.00289,0.00723 0.00289,0.018891 0,0.026045 -0.00289,0.00723 -0.00523,0.00161 -0.00523,-0.013023 z m -0.01004,-0.057316 c 2.114e-4,-0.017203 0.00257,-0.022991 0.00523,-0.012862 0.00265,0.010129 0.00249,0.024197 -3.891e-4,0.031271 -0.00289,0.00723 -0.00498,-0.00161 -0.00482,-0.018409 z m -0.01004,-0.078217 c 0,-0.020097 0.00217,-0.028296 0.00474,-0.018248 0.00265,0.010048 0.00265,0.026447 0,0.036496 -0.00265,0.010048 -0.00474,0.00161 -0.00474,-0.018248 z m -0.010426,-0.083394 c 0,-0.020097 0.00217,-0.028296 0.00474,-0.018248 0.00265,0.010048 0.00265,0.026447 0,0.036496 -0.00265,0.010048 -0.00474,0.00161 -0.00474,-0.018248 z m -0.01,-0.083394 c 0,-0.025804 0.00201,-0.036335 0.0045,-0.023473 0.00249,0.012862 0.00249,0.034004 0,0.046946 -0.00249,0.012862 -0.0045,0.00241 -0.0045,-0.023473 z M 1.7758304,2.605688 c 0,-0.025804 0.00201,-0.036335 0.0045,-0.023473 0.00249,0.012942 0.00249,0.034004 0,0.046946 -0.00249,0.012862 -0.0045,0.00241 -0.0045,-0.023473 z M 6.3040405,1.7248186 c 0.00346,-0.02291 0.00807,-0.04365 0.010185,-0.046062 0.00788,-0.00892 0.00201,0.046866 -0.00707,0.066882 -0.00659,0.01455 -0.00756,0.0082 -0.00314,-0.02082 z m 0.016037,-0.083394 c 2.227e-4,-0.017203 0.00257,-0.022991 0.00523,-0.012862 0.00265,0.010129 0.00249,0.024197 -3.328e-4,0.031271 -0.00289,0.00723 -0.00498,-0.00161 -0.00482,-0.018409 z m 0.011624,-0.09382 c 6.35e-5,-0.034406 0.00201,-0.047187 0.00434,-0.028457 0.00233,0.01873 0.00225,0.046866 -1.069e-4,0.062541 -0.00241,0.015676 -0.00426,3.296e-4 -0.00426,-0.034084 z m 0.010314,-0.1511525 c 0,-0.031512 0.00193,-0.044454 0.00434,-0.028698 0.00241,0.015756 0.00241,0.04156 0,0.057316 -0.00241,0.015756 -0.00434,0.00322 -0.00434,-0.028698 z M 6.3200778,1.1514794 c 2.219e-4,-0.017203 0.00257,-0.022991 0.00523,-0.012862 0.00265,0.010129 0.00249,0.024197 -3.336e-4,0.031271 -0.00289,0.00723 -0.00498,-0.00161 -0.00482,-0.018409 z m -0.2351276,-0.03328 c -0.010362,-0.01037 -0.00788,-0.036415 0.00289,-0.029824 0.00523,0.00322 0.011905,0 0.014815,-0.00723 0.00289,-0.00723 0.00563,-0.00322 0.00611,0.00973 8.843e-4,0.023795 -0.012251,0.038827 -0.023787,0.027251 z m 0.223949,-0.018811 c -8.843e-4,-0.011495 -0.00402,-0.032557 -0.00691,-0.046946 l -0.00539,-0.026045 0.011166,0.025563 c 0.00611,0.014068 0.00926,0.035129 0.00691,0.046866 -0.0041,0.02082 -0.00426,0.02082 -0.00579,4.904e-4 z m -0.240217,-0.042605 c 5.555e-4,-0.012139 0.00297,-0.01463 0.00627,-0.00643 0.00297,0.00723 0.00265,0.016479 -7.781e-4,0.020017 -0.00346,0.00322 -0.00595,-0.00241 -0.00547,-0.013666 z m -0.010426,-0.041722 c 4.445e-4,-0.012139 0.00297,-0.01463 0.00627,-0.00643 0.00297,0.00723 0.00265,0.01656 -7.782e-4,0.020017 -0.00346,0.00322 -0.00595,-0.00241 -0.00547,-0.013666 z m 0.2245904,-0.00997 c -0.010057,-0.026206 -0.00707,-0.032959 0.00523,-0.011817 0.00611,0.01045 0.00887,0.021222 0.00619,0.023875 -0.00265,0.00241 -0.0078,-0.00241 -0.011383,-0.012058 z M 6.0280046,0.9189346 C 6.0131816,0.8694159 5.9853756,0.8429685 5.9001468,0.79701099 c -0.07677,-0.0413995 -0.076087,-0.0494383 8.842e-4,-0.0104504 0.071175,0.036094 0.1216455,0.0829679 0.1359577,0.12633688 0.00667,0.0201772 0.01004,0.0387467 0.00748,0.0412387 -0.00249,0.00241 -0.00995,-0.013344 -0.016495,-0.0352097 z M 5.7446992,0.73446157 c -0.037268,-0.0134247 -0.062807,-0.0248397 -0.056754,-0.0252417 0.013947,-8.0387e-4 0.1401474,0.0413191 0.1401474,0.0470266 0,0.007235 -0.0125,0.004019 -0.083395,-0.021785 z m -0.1125834,-0.038586 c -0.019148,-0.0191322 -0.014896,-0.0697763 0.00834,-0.0993187 0.050435,-0.0641492 0.00362,-0.12793659 -0.09382,-0.12793659 -0.098073,0 -0.1412761,0.0584417 -0.093154,0.12602337 0.023473,0.0329588 0.024518,0.094608 0.00169,0.0991257 -0.00732,0.001608 -0.00848,2.4116e-4 -0.00257,-0.002412 0.018047,-0.008923 0.011857,-0.0665608 -0.010161,-0.0945356 -0.05148,-0.0654354 0.00346,-0.13836284 0.1042448,-0.13836284 0.1007914,0 0.1557266,0.0729114 0.104244,0.13836284 -0.029076,0.0369782 -0.027742,0.0888763 0.00257,0.10107915 0.014389,0.005627 0.017211,0.009646 0.00732,0.0101288 -0.00888,3.6174e-4 -0.021785,-0.004823 -0.028666,-0.011817 z m -4.0962812,-0.004823 c -0.00788,-0.003216 -0.012444,-0.0225085 -0.011552,-0.0487148 l 0.00145,-0.0434092 0.00635,0.0417211 0.00635,0.0417211 1.8477331,0.002412 1.8477316,0.002412 V 0.53637891 c 0,-0.17266415 5.563e-4,-0.17378154 0.090529,-0.17064643 0.047967,0.001608 0.048345,0.001608 0.0085,0.005627 -0.094879,0.00828 -0.087696,-0.004823 -0.090937,0.16759975 l -0.00289,0.15363645 -1.8451262,0.001608 c -1.0148197,8.0374e-4 -1.8509905,-5.7892e-4 -1.858157,-0.003216 z m 3.8595796,-0.006431 c -0.00822,-0.0231516 -0.010619,-0.30834206 -0.00257,-0.30332588 0.00434,0.002412 0.0078,0.0721879 0.0078,0.15452875 0,0.10997804 0.00346,0.15106405 0.013031,0.15492265 0.010201,0.004019 0.010137,0.005627 -3.336e-4,0.006431 -0.00732,4.5017e-4 -0.015442,-0.004823 -0.017983,-0.0122189 z m -5.11007908,-0.004823 c 0.03894,-0.001608 0.099922,-0.001608 0.1355179,4.02e-5 0.035596,0.002412 0.0037,0.004019 -0.070797,0.004019 -0.074535,-1.608e-5 -0.1036579,-0.001608 -0.06472,-0.004019 z M 1.2812556,0.64587467 c 0.00217,-0.0229104 0.00587,-0.0417211 0.0081,-0.0417211 0.00225,0 0.0041,0.0187303 0.0041,0.0417211 0,0.0229104 -0.00362,0.0417211 -0.00809,0.0417211 -0.00442,0 -0.00627,-0.0187303 -0.0041,-0.0417211 z m 0.013031,-0.0686509 c 5.001e-4,-0.0121385 0.00297,-0.0146305 0.00627,-0.006431 0.00297,0.007235 0.00265,0.0164794 -8.039e-4,0.0200165 -0.00346,0.003215 -0.00595,-0.002412 -0.00547,-0.0136659 z"
       id="path518" /></g></svg>
